/* XPM */
static char * dir2_del_xpm[] = {
"16 16 56 1",
" 	c None",
".	c #000000",
"+	c #E1846D",
"@	c #F5312A",
"#	c #FE0505",
"$	c #FA322F",
"%	c #F78983",
"&	c #EF3024",
"*	c #FF0000",
"=	c #FB3330",
"-	c #EB2F20",
";	c #EF2E22",
">	c #41B84A",
",	c #55D255",
"'	c #DFA990",
")	c #F7302A",
"!	c #BF7D4B",
"~	c #EB2D1E",
"{	c #5CD459",
"]	c #48C54E",
"^	c #F63029",
"/	c #F1877D",
"(	c #388D46",
"_	c #E42E19",
":	c #161F16",
"<	c #F7322C",
"[	c #42B94D",
"}	c #B3F7AC",
"|	c #FB0502",
"1	c #B6F9B6",
"2	c #A4F392",
"3	c #FD0504",
"4	c #2E8543",
"5	c #BFFAC3",
"6	c #9DEF78",
"7	c #6AD758",
"8	c #267B3C",
"9	c #DD2C12",
"0	c #96EC7A",
"a	c #066334",
"b	c #DF2B12",
"c	c #E01313",
"d	c #A83434",
"e	c #1F7437",
"f	c #D92C0E",
"g	c #DE2A11",
"h	c #8AE570",
"i	c #E62C19",
"j	c #FF3434",
"k	c #37883F",
"l	c #78E580",
"m	c #D92B0E",
"n	c #E51A1A",
"o	c #43BF40",
"p	c #FA0501",
"q	c #F22727",
"                ",
"                ",
"    .+@##$%     ",
"   .&******=    ",
"  .-*;>,>')*$.. ",
"  !*~{]{]**^*/(.",
" ._*...:**..*<[.",
".}|*121**212*34.",
".5|*67**6767*38.",
" .9*7**07676*&8.",
" a1*b*67676c*de.",
"  af*g7h76i*jk..",
"  .lm******n7o..",
"   ...fp#qd.... ",
"                ",
"                "};
