/* XPM */
static char * dir_del_xpm[] = {
"16 16 54 1",
" 	c None",
".	c #000000",
"+	c #E1846D",
"@	c #F5312A",
"#	c #FE0505",
"$	c #FA322F",
"%	c #F78983",
"&	c #EF3024",
"*	c #FF0000",
"=	c #FB3330",
"-	c #EB2F20",
";	c #EF2E22",
">	c #41B84A",
",	c #55D255",
"'	c #DFA990",
")	c #F7302A",
"!	c #BF7D4B",
"~	c #EB2D1E",
"{	c #D3FCDC",
"]	c #B5F7B0",
"^	c #F63029",
"/	c #F1877D",
"(	c #85EB80",
"_	c #E42E19",
":	c #7DE66F",
"<	c #A5F28D",
"[	c #A5F190",
"}	c #7EE673",
"|	c #74E36C",
"1	c #F7322C",
"2	c #42B94D",
"3	c #FB0502",
"4	c #5DD65D",
"5	c #FD0504",
"6	c #42A151",
"7	c #3C934C",
"8	c #DD2C12",
"9	c #78E372",
"0	c #DF2B12",
"a	c #73E16A",
"b	c #E01313",
"c	c #A83434",
"d	c #328946",
"e	c #D92C0E",
"f	c #DE2A11",
"g	c #64D660",
"h	c #E62C19",
"i	c #FF3434",
"j	c #AAF598",
"k	c #D92B0E",
"l	c #E51A1A",
"m	c #247B3D",
"n	c #FA0501",
"o	c #F22727",
"                ",
"                ",
"    .+@##$%     ",
"   .&******=    ",
"  .-*;>,>')*$.. ",
"  !*~{]{]**^*/(.",
"  _*:<:[**}|*12.",
"  3*<:<**||4*56.",
"  3*:<**|:4:*57.",
"  8*<**9:4:4*&7.",
"  .*0*a:4:4b*cd.",
"  .e*f:g:4h*i2d.",
"  .jk******lddm.",
"   ...en#oc.... ",
"                ",
"                "};
