/* XPM */
static char * dir_changed_xpm[] = {
"16 16 28 1",
" 	c None",
".	c #000000",
"+	c #DCC679",
"@	c #C9AC56",
"#	c #CAAF5D",
"$	c #C89F31",
"%	c #F8F3D1",
"&	c #F3E8B4",
"*	c #F9F5D6",
"=	c #E3D296",
"-	c #EBDFB2",
";	c #F0E4A9",
">	c #E2CE89",
",	c #ECDA93",
"'	c #DDC77C",
")	c #D9C376",
"!	c #CCB367",
"~	c #C79F34",
"{	c #F6EEC3",
"]	c #B9922A",
"^	c #AF8820",
"/	c #CFB96A",
"(	c #C7AA50",
"_	c #D7BF74",
":	c #C8A64B",
"<	c #A58216",
"[	c #EEE09F",
"}	c #987407",
"                ",
"                ",
"    ....        ",
"   .+@+@.       ",
"  .#$#$#$...... ",
"  .%&*&*&%*=-;>.",
"  .;+,+,+,')!+~.",
"  .{,+,+,))!+!].",
"  .;+,+,)+!+!!^.",
"  .{,+,)+!+!/(^.",
"  .;+,_+!+!!(:<.",
"  .{,_+!+!!::~<.",
"  .[]~]:]~]^<<}.",
"   ............ ",
"                ",
"                "};
