/* XPM */
static char * file_new_xpm[] = {
"16 15 61 1",
" 	c None",
".	c #616161",
"+	c #414141",
"@	c #ECA0A0",
"#	c #EEA8A8",
"$	c #F0B1B1",
"%	c #F1B9B9",
"&	c #F3C1C1",
"*	c #F4C9C9",
"=	c #F6D1D1",
"-	c #F7DADA",
";	c #F9E2E2",
">	c #FBEAEA",
",	c #FCF2F2",
"'	c #FEFAFA",
")	c #000000",
"!	c #EA9494",
"~	c #EC9C9C",
"{	c #EDA4A4",
"]	c #EFADAD",
"^	c #F0B5B5",
"/	c #F2BDBD",
"(	c #F3C5C5",
"_	c #F5CDCD",
":	c #F7D6D6",
"<	c #F8DEDE",
"[	c #FAE6E6",
"}	c #FBEEEE",
"|	c #E88888",
"1	c #E99090",
"2	c #EB9898",
"3	c #E57B7B",
"4	c #E78484",
"5	c #E88C8C",
"6	c #E36F6F",
"7	c #E47777",
"8	c #E68080",
"9	c #E16363",
"0	c #E26B6B",
"a	c #E47373",
"b	c #DE5757",
"c	c #E05F5F",
"d	c #E16767",
"e	c #DC4A4A",
"f	c #DD5252",
"g	c #DF5B5B",
"h	c #D93E3E",
"i	c #DB4646",
"j	c #DD4E4E",
"k	c #D73232",
"l	c #D93A3A",
"m	c #DA4242",
"n	c #202020",
"o	c #D62929",
"p	c #D62E2E",
"q	c #D83636",
"r	c #FFFFFF",
"s	c #C2C2C2",
"t	c #A2A2A2",
"u	c #828282",
"v	c #DFDFDF",
" .............+ ",
" .@#$%&*=-;>,') ",
" .!~{]^/(_:<[}) ",
" .|12@#$%&*=-;) ",
" .345!~{]^/(_:) ",
" .678|12@#$%&*) ",
" .90a345!~{]^/) ",
" .bcd678|12@#$) ",
" .efg90a345!~{) ",
" .hijbcd678|12) ",
" .klmefg90a...n ",
" .opqhijbcd.rs+ ",
" .oooklmeftus+t ",
" .oooopqvs.s+u  ",
" +))))))))n+t   "};
