/* XPM */
static char * file_xpm[] = {
"16 15 61 1",
" 	c None",
".	c #616161",
"+	c #414141",
"@	c #BDF0BD",
"#	c #C5F2C5",
"$	c #CDF4CD",
"%	c #D5F6D5",
"&	c #DEF7DE",
"*	c #E6F9E6",
"=	c #EEFBEE",
"-	c #F6FDF6",
";	c #FFFFFF",
">	c #000000",
",	c #B0EEB0",
"'	c #B9EFB9",
")	c #C1F1C1",
"!	c #C9F3C9",
"~	c #D1F5D1",
"{	c #D9F7D9",
"]	c #E2F8E2",
"^	c #EAFAEA",
"/	c #F2FCF2",
"(	c #FAFEFA",
"_	c #A4EBA4",
":	c #ACEDAC",
"<	c #B4EFB4",
"[	c #98E898",
"}	c #A0EAA0",
"|	c #A8ECA8",
"1	c #8BE68B",
"2	c #94E794",
"3	c #9CE99C",
"4	c #7FE37F",
"5	c #87E587",
"6	c #8FE78F",
"7	c #73E073",
"8	c #7BE27B",
"9	c #83E483",
"0	c #66DE66",
"a	c #6EE06E",
"b	c #77E177",
"c	c #5ADB5A",
"d	c #62DD62",
"e	c #6ADF6A",
"f	c #4ED84E",
"g	c #56DA56",
"h	c #5EDC5E",
"i	c #202020",
"j	c #41D641",
"k	c #49D849",
"l	c #52D952",
"m	c #C2C2C2",
"n	c #35D335",
"o	c #3DD53D",
"p	c #45D745",
"q	c #A2A2A2",
"r	c #828282",
"s	c #29D029",
"t	c #31D231",
"u	c #39D439",
"v	c #DFDFDF",
" .............+ ",
" .@#$%&*=-;;;;> ",
" .,')!~{]^/(;;> ",
" ._:<@#$%&*=-;> ",
" .[}|,')!~{]^/> ",
" .123_:<@#$%&*> ",
" .456[}|,')!~{> ",
" .789123_:<@#$> ",
" .0ab456[}|,')> ",
" .cde789123_:<> ",
" .fgh0ab456...i ",
" .jklcde789.;m+ ",
" .nopfgh0aqrm+q ",
" .stujklvm.m+r  ",
" +>>>>>>>>i+q   "};
