/* XPM */
static char * file_changed_xpm[] = {
"16 15 28 1",
" 	c None",
".	c #616161",
"+	c #414141",
"@	c #F5DCA1",
"#	c #F6E0AC",
"$	c #F7E5B8",
"%	c #F9E9C4",
"&	c #FAEDD0",
"*	c #FBF1DB",
"=	c #FCF6E7",
"-	c #FDFAF3",
";	c #FFFFFF",
">	c #000000",
",	c #F4D795",
"'	c #F3D389",
")	c #F2CF7E",
"!	c #F0CA72",
"~	c #EFC666",
"{	c #EEC25A",
"]	c #EDBE4F",
"^	c #ECB943",
"/	c #EBB537",
"(	c #202020",
"_	c #E9B02B",
":	c #C2C2C2",
"<	c #A2A2A2",
"[	c #828282",
"}	c #DFDFDF",
" .............+ ",
" .@#$%&*=-;;;;> ",
" .,@#$%&*=-;;;> ",
" .',@#$%&*=-;;> ",
" .)',@#$%&*=-;> ",
" .!)',@#$%&*=-> ",
" .~!)',@#$%&*=> ",
" .{~!)',@#$%&*> ",
" .]{~!)',@#$%&> ",
" .^]{~!)',@#$%> ",
" ./^]{~!)',...( ",
" ._/^]{~!)'.;:+ ",
" .__/^]{~!<[:+< ",
" .___/^]}:.:+[  ",
" +>>>>>>>>(+<   "};
