/* XPM */
static char * file_del_xpm[] = {
"16 15 96 2",
"  	c None",
". 	c #616161",
"+ 	c #414141",
"@ 	c #BDF0BD",
"# 	c #C5F2C5",
"$ 	c #CDF4CD",
"% 	c #D5F6D5",
"& 	c #DEF7DE",
"* 	c #E6F9E6",
"= 	c #EEFBEE",
"- 	c #F6FDF6",
"; 	c #FFFFFF",
"> 	c #000000",
", 	c #B0EEB0",
"' 	c #B9EFB9",
") 	c #C1F1C1",
"! 	c #E1846D",
"~ 	c #F5312A",
"{ 	c #FE0505",
"] 	c #FA322F",
"^ 	c #F78983",
"/ 	c #FAFEFA",
"( 	c #A4EBA4",
"_ 	c #B7CD95",
": 	c #EF3024",
"< 	c #FF0000",
"[ 	c #FB3330",
"} 	c #F7DBD5",
"| 	c #98E898",
"1 	c #EB2F20",
"2 	c #EF2E22",
"3 	c #CEA47F",
"4 	c #C3E7B9",
"5 	c #CBE9C1",
"6 	c #DFA990",
"7 	c #F7302A",
"8 	c #F2FCF2",
"9 	c #BF7D4B",
"0 	c #EB2D1E",
"a 	c #A7E19D",
"b 	c #ACEDAC",
"c 	c #B4EFB4",
"d 	c #F63029",
"e 	c #F1877D",
"f 	c #E42E19",
"g 	c #B19F62",
"h 	c #A0EAA0",
"i 	c #A8ECA8",
"j 	c #D9A78A",
"k 	c #F7322C",
"l 	c #FB0502",
"m 	c #87DB7D",
"n 	c #8BE68B",
"o 	c #94E794",
"p 	c #BFE6B5",
"q 	c #FD0504",
"r 	c #7CD872",
"s 	c #7FE37F",
"t 	c #B3E4A9",
"u 	c #DD2C12",
"v 	c #989949",
"w 	c #83E483",
"x 	c #9CE99C",
"y 	c #C0A271",
"z 	c #9E752A",
"A 	c #DF2B12",
"B 	c #6EE06E",
"C 	c #77E177",
"D 	c #87E587",
"E 	c #93DD89",
"F 	c #E01313",
"G 	c #A83434",
"H 	c #202020",
"I 	c #41D641",
"J 	c #D92C0E",
"K 	c #DE2A11",
"L 	c #929843",
"M 	c #6FD665",
"N 	c #78D76E",
"O 	c #A39B54",
"P 	c #E62C19",
"Q 	c #FF3434",
"R 	c #C2C2C2",
"S 	c #35D335",
"T 	c #56B834",
"U 	c #D92B0E",
"V 	c #E51A1A",
"W 	c #CAA8A8",
"X 	c #A2A2A2",
"Y 	c #29D029",
"Z 	c #31D231",
"` 	c #39D439",
" .	c #977423",
"..	c #FA0501",
"+.	c #F22727",
"@.	c #828282",
"  . . . . . . . . . . . . . +   ",
"  . @ # $ % & * = - ; ; ; ; >   ",
"  . , ' ) ! ~ { { ] ^ / ; ; >   ",
"  . ( _ : < < < < < < [ } ; >   ",
"  . | 1 < 2 3 4 5 6 7 < ] 8 >   ",
"  . 9 < 0 a b c @ < < d < e >   ",
"  . f < g | h i < < ) j < k >   ",
"  . l < m n o < < b c p < q >   ",
"  . l < r s < < | h i t < q >   ",
"  . u < v < < w n o x y < : >   ",
"  . z < A < B C s D E F < G H   ",
"  . I J < K L M N O P < Q R +   ",
"  . S T U < < < < < < V W + X   ",
"  . Y Z `  .J ..{ +.G R + @.    ",
"  + > > > > > > > > H + X       "};
