/* XPM */
static char * file_moved_xpm[] = {
"16 15 49 1",
" 	c None",
".	c #3C403C",
"+	c #000000",
"@	c #9FB09F",
"#	c #A9B2A9",
"$	c #B2B4B2",
"%	c #B5B5B5",
"&	c #232323",
"*	c #3F473F",
"=	c #AEEDAE",
"-	c #D4F5D4",
";	c #E7F9E7",
">	c #F7FDF7",
",	c #1F1F1F",
"'	c #CDF3CD",
")	c #DFF7DF",
"!	c #1C1F1C",
"~	c #384638",
"{	c #7AE27A",
"]	c #9FEA9F",
"^	c #B2EEB2",
"/	c #C5F2C5",
"(	c #191E19",
"_	c #354535",
":	c #72E072",
"<	c #85E485",
"[	c #95E095",
"}	c #95BE95",
"|	c #181C18",
"1	c #324532",
"2	c #45D645",
"3	c #58DA58",
"4	c #6BDE6B",
"5	c #80C180",
"6	c #9F9F9F",
"7	c #3B3B3B",
"8	c #95AE95",
"9	c #263126",
"0	c #1A701A",
"a	c #247224",
"b	c #4C744C",
"c	c #5C5E5C",
"d	c #686868",
"e	c #C1F1C1",
"f	c #94E794",
"g	c #A7EBA7",
"h	c #BAEFBA",
"i	c #8CE58C",
"j	c #5FDC5F",
"                ",
"        .+@#$%& ",
"        *=+-;>, ",
"    ++++++++')! ",
"   +    ~{+]^/( ",
"   +    _+:<[}| ",
"   +    1234567 ",
"  8+#$% 90abcd  ",
"  =e-;>         ",
"  fgh')         ",
"  {i]^/         ",
"  j:<[}         ",
"  23456         ",
"  0abcd         ",
"                "};
