/* XPM */
static char * link_new_xpm[] = {
"16 15 18 1",
" 	c None",
".	c #EB8298",
"+	c #F7A6B5",
"@	c #7E0011",
"#	c #AE0031",
"$	c #D96480",
"%	c #FDD0DA",
"&	c #DB3262",
"*	c #4E0000",
"=	c #FCCBD5",
"-	c #F6A3B5",
";	c #EC879C",
">	c #E57690",
",	c #A4002A",
"'	c #7A000B",
")	c #860016",
"!	c #DF1855",
"~	c #D9044A",
"                ",
"                ",
"      .+        ",
"      .@#.      ",
"        .#@$%   ",
"          +&*&+ ",
"=------;-   %$@&",
">,''''')!   $#@.",
"         %&@#+  ",
"       +~*&%    ",
"      &@$       ",
"      %         ",
"                ",
"                ",
"                "};
