/* XPM */
static char * link_del_xpm[] = {
"16 15 49 1",
" 	c None",
".	c #E1846D",
"+	c #F5312A",
"@	c #FE0505",
"#	c #FA322F",
"$	c #F78983",
"%	c #EF3024",
"&	c #FF0000",
"*	c #FB3330",
"=	c #EB2F20",
"-	c #EF2E22",
";	c #ABB2C3",
">	c #1F3460",
",	c #3B4D74",
"'	c #DFA990",
")	c #F7302A",
"!	c #BF7D4B",
"~	c #EB2D1E",
"{	c #F63029",
"]	c #F1877D",
"^	c #E42E19",
"/	c #C7CCD7",
"(	c #73809C",
"_	c #F7322C",
":	c #E0E3E9",
"<	c #C5CAD6",
"[	c #FB0502",
"}	c #FD0504",
"|	c #A1A9BC",
"1	c #35476F",
"2	c #1C315E",
"3	c #667492",
"4	c #DD2C12",
"5	c #E3E5EB",
"6	c #DF2B12",
"7	c #576687",
"8	c #031A4C",
"9	c #E01313",
"0	c #A83434",
"a	c #D92C0E",
"b	c #DE2A11",
"c	c #3F7462",
"d	c #8F99AF",
"e	c #E62C19",
"f	c #FF3434",
"g	c #D92B0E",
"h	c #E51A1A",
"i	c #FA0501",
"j	c #F22727",
"                ",
"     .+@@#$     ",
"    %&&&&&&*    ",
"   =&-;>,')&#   ",
"  !&~   ;&&{&]  ",
"  ^&    &&/(&_/ ",
":<[&<<<&&   &}>(",
"|1[&22&&3   &}>;",
"  4& &&  5(>&%  ",
"   &6& /78(9&0  ",
"   a&b(cd e&f   ",
"    g&&&&&&h    ",
"      ai@j0     ",
"                ",
"                "};
